<svg width="29" height="25" viewBox="0 0 29 25" fill="none" xmlns="http://www.w3.org/2000/svg">
<g clip-path="url(#clip0_0_7257)">
<path d="M24.8363 1L28.0004 5.21777V21.9834C28.0004 22.7801 27.3546 23.4257 26.558 23.4258H9.45938C8.66275 23.4257 8.017 22.7801 8.017 21.9834V5.21777L11.1811 1H24.8363Z" stroke="#004CFF" stroke-width="2" stroke-linecap="round" stroke-linejoin="round"/>
<path d="M9.017 4.88477H27.0004" stroke="#004CFF" stroke-width="2" stroke-linecap="round" stroke-linejoin="round"/>
<path d="M22.8934 9.77002C22.8934 12.468 20.7062 14.6552 18.0082 14.6552C15.3102 14.6552 13.123 12.468 13.123 9.77002" stroke="#004CFF" stroke-width="2" stroke-linecap="round" stroke-linejoin="round"/>
</g>
<g clip-path="url(#clip1_0_7257)">
<path d="M9 8C13.4183 8 17 11.5817 17 16C17 20.4183 13.4183 24 9 24C4.58172 24 1 20.4183 1 16C1 11.5817 4.58172 8 9 8Z" fill="white" stroke="#004BFE" stroke-width="2"/>
<g clip-path="url(#clip2_0_7257)">
<path d="M9.08199 12.752V19.4119" stroke="#004BFE" stroke-width="2" stroke-linecap="round"/>
<path d="M12.412 16.082H5.752" stroke="#004BFE" stroke-width="2" stroke-linecap="round"/>
</g>
</g>
<defs>
<clipPath id="clip0_0_7257">
<rect width="21.9834" height="24.426" fill="white" transform="translate(7.017)"/>
</clipPath>
<clipPath id="clip1_0_7257">
<rect width="18" height="18" fill="white" transform="translate(0 7)"/>
</clipPath>
<clipPath id="clip2_0_7257">
<rect width="6.65998" height="6.65998" fill="white" transform="translate(5.752 12.752)"/>
</clipPath>
</defs>
</svg>
