<svg width="90" height="90" viewBox="0 0 90 90" fill="none" xmlns="http://www.w3.org/2000/svg">
<g clip-path="url(#clip0_0_12804)">
<path d="M51.8662 0.520508C55.1395 1.02165 58.2959 1.87744 61.2969 3.04395C61.0942 3.55117 61.3367 4.12804 61.8428 4.33789C65.4193 5.82102 68.7581 7.76296 71.7861 10.0898C72.2203 10.4234 72.8402 10.345 73.1787 9.91699C75.7216 11.9621 78.0369 14.2775 80.082 16.8203C79.6541 17.1589 79.5766 17.7798 79.9102 18.2139C82.237 21.2419 84.179 24.5807 85.6621 28.1572C85.8719 28.6631 86.448 28.9044 86.9551 28.7021C88.1217 31.7032 88.9773 34.8595 89.4785 38.1328C88.9371 38.2099 88.557 38.7083 88.6279 39.252C88.8733 41.1328 89 43.0513 89 45C89 46.9487 88.8733 48.8672 88.6279 50.748C88.557 51.2917 88.9372 51.7891 89.4785 51.8662C88.9774 55.1395 88.1216 58.2958 86.9551 61.2969C86.4801 61.1076 85.9444 61.308 85.7061 61.75L85.6621 61.8428C84.179 65.4193 82.237 68.7581 79.9102 71.7861C79.5767 72.2201 79.6545 72.8401 80.082 73.1787C78.0369 75.7216 75.7216 78.0369 73.1787 80.082C72.8401 79.6545 72.2201 79.5767 71.7861 79.9102C68.9473 82.0917 65.8348 83.934 62.5098 85.3779L61.8428 85.6621C61.337 85.8718 61.0948 86.4481 61.2969 86.9551C58.2958 88.1216 55.1395 88.9774 51.8662 89.4785C51.7891 88.9372 51.2917 88.557 50.748 88.6279C48.8672 88.8733 46.9487 89 45 89C43.0513 89 41.1328 88.8733 39.252 88.6279L39.1494 88.6201C38.6469 88.606 38.205 88.9714 38.1328 89.4785C34.8595 88.9773 31.7032 88.1217 28.7021 86.9551C28.9044 86.448 28.6631 85.8719 28.1572 85.6621L27.4902 85.3779C24.1652 83.934 21.0527 82.0917 18.2139 79.9102L18.1299 79.8516C17.7029 79.5875 17.1375 79.6811 16.8203 80.082C14.2775 78.0369 11.9621 75.7216 9.91699 73.1787C10.345 72.8402 10.4234 72.2203 10.0898 71.7861L9.6582 71.2148C7.52212 68.3399 5.72835 65.1958 4.33789 61.8428L4.29395 61.75C4.05551 61.3077 3.51916 61.107 3.04395 61.2969C1.87744 58.2959 1.02165 55.1395 0.520508 51.8662C1.06231 51.7895 1.44303 51.292 1.37207 50.748L1.28516 50.041C1.09657 48.3871 1 46.7051 1 45C1 43.2949 1.09657 41.6129 1.28516 39.959L1.37207 39.252C1.44303 38.7079 1.06239 38.2094 0.520508 38.1328C1.02171 34.8596 1.87739 31.7031 3.04395 28.7021C3.55125 28.905 4.12799 28.6634 4.33789 28.1572C5.82102 24.5807 7.76296 21.2419 10.0898 18.2139C10.4235 17.7796 10.3455 17.1588 9.91699 16.8203C11.9621 14.2775 14.2775 11.9621 16.8203 9.91699C17.1588 10.3455 17.7796 10.4235 18.2139 10.0898C21.2419 7.76296 24.5807 5.82102 28.1572 4.33789C28.6634 4.12799 28.905 3.55125 28.7021 3.04395C31.7031 1.87739 34.8596 1.02171 38.1328 0.520508C38.2046 1.02814 38.6465 1.39399 39.1494 1.37988L39.252 1.37207C41.1328 1.12673 43.0513 1 45 1C46.9487 1 48.8672 1.12673 50.748 1.37207C51.292 1.44303 51.7895 1.06232 51.8662 0.520508Z" stroke="#004CFF" stroke-width="2" stroke-linecap="round" stroke-dasharray="11"/>
<g clip-path="url(#clip1_0_12804)">
<path d="M62 55.7273C62 57.4343 60.6162 58.8182 58.9091 58.8182H31.0909C29.3838 58.8182 28 57.4343 28 55.7273V38.7273C28 37.0202 29.3838 35.6364 31.0909 35.6364H37.2727L40.3636 31H49.6364L52.7273 35.6364H58.9091C60.6162 35.6364 62 37.0202 62 38.7273V55.7273Z" stroke="#004CFF" stroke-width="2" stroke-linecap="round" stroke-linejoin="round"/>
<path d="M52.0217 46.2865C52.0217 50.1646 48.8779 53.3084 44.9999 53.3084C41.1218 53.3084 37.978 50.1646 37.978 46.2865C37.978 42.4084 41.1218 39.2646 44.9999 39.2646C48.8779 39.2646 52.0217 42.4084 52.0217 46.2865Z" stroke="#004CFF" stroke-width="2" stroke-linecap="round" stroke-linejoin="round"/>
</g>
</g>
<defs>
<clipPath id="clip0_0_12804">
<rect width="90" height="90" fill="white"/>
</clipPath>
<clipPath id="clip1_0_12804">
<rect width="34" height="27.8182" fill="white" transform="translate(28 31)"/>
</clipPath>
</defs>
</svg>
